# Blender v2.81 (sub 16) OBJ File: 'tareaUno.blend'
# www.blender.org
mtllib tareaUno.mtl
o Rocket_Fuselage_Circle.001
v 0.000000 0.000000 -1.000000
v -0.951057 0.000000 -0.309017
v -0.587785 0.000000 0.809017
v 0.587785 0.000000 0.809017
v 0.951056 0.000000 -0.309017
v -0.000000 1.047953 -1.651866
v -1.571018 1.047953 -0.510455
v -0.970942 1.047953 1.336388
v 0.970943 1.047953 1.336388
v 1.571018 1.047953 -0.510455
v -0.039608 3.028335 -0.581172
v -0.592335 3.028335 -0.179592
v -0.381212 3.028335 0.470178
v 0.301997 3.028335 0.470178
v 0.513120 3.028335 -0.179592
v -0.039608 3.454118 -0.214267
v -0.243387 3.454118 -0.066212
v -0.165550 3.454118 0.173346
v 0.086335 3.454118 0.173346
v 0.164172 3.454118 -0.066212
vt 0.000000 0.000000
vt 0.000000 0.000000
vt 0.000000 0.000000
vt 0.000000 0.000000
vt 0.000000 0.000000
vt 0.000000 0.000000
vt 0.000000 0.000000
vt 0.000000 0.000000
vt 0.000000 0.000000
vt 0.000000 0.000000
vt 0.000000 0.000000
vt 0.000000 0.000000
vt 0.000000 0.000000
vt 0.000000 0.000000
vt 0.000000 0.000000
vt 0.000000 0.000000
vt 0.000000 0.000000
vt 0.000000 0.000000
vt 0.000000 0.000000
vt 0.000000 0.000000
vn 0.5250 0.4495 0.7227
vn -0.8495 0.4495 -0.2760
vn 0.8495 0.4495 -0.2760
vn -0.5250 0.4495 0.7227
vn -0.0000 0.4495 -0.8933
vn -0.5362 -0.4097 0.7380
vn -0.0000 -0.4007 -0.9162
vn 0.5408 -0.3916 0.7444
vn -0.8652 -0.4152 -0.2811
vn 0.8774 -0.3860 -0.2851
vn -0.7802 -0.5719 -0.2535
vn 0.7802 -0.5719 -0.2535
vn -0.4822 -0.5719 0.6637
vn -0.0000 -0.5719 -0.8203
vn 0.4822 -0.5719 0.6637
vn 0.0000 -1.0000 -0.0000
vn 0.0000 1.0000 0.0000
usemtl None
s off
f 1/1/1 7/2/1 2/3/1
f 4/4/2 10/5/2 5/6/2
f 2/3/3 8/7/3 3/8/3
f 5/6/4 6/9/4 1/1/4
f 3/8/5 9/10/5 4/4/5
f 6/9/6 15/11/6 11/12/6
f 8/7/7 14/13/7 9/10/7
f 7/2/8 11/12/8 12/14/8
f 9/10/9 15/11/9 10/5/9
f 7/2/10 13/15/10 8/7/10
f 14/13/11 20/16/11 15/11/11
f 12/14/12 18/17/12 13/15/12
f 15/11/13 16/18/13 11/12/13
f 14/13/14 18/17/14 19/19/14
f 12/14/15 16/18/15 17/20/15
f 16/18/16 20/16/16 19/19/16
f 3/8/17 4/4/17 2/3/17
f 1/1/17 2/3/17 5/6/17
f 5/6/17 2/3/17 4/4/17
f 1/1/1 6/9/1 7/2/1
f 4/4/2 9/10/2 10/5/2
f 2/3/3 7/2/3 8/7/3
f 5/6/4 10/5/4 6/9/4
f 3/8/5 8/7/5 9/10/5
f 6/9/6 10/5/6 15/11/6
f 8/7/7 13/15/7 14/13/7
f 7/2/8 6/9/8 11/12/8
f 9/10/9 14/13/9 15/11/9
f 7/2/10 12/14/10 13/15/10
f 14/13/11 19/19/11 20/16/11
f 12/14/12 17/20/12 18/17/12
f 15/11/13 20/16/13 16/18/13
f 14/13/14 13/15/14 18/17/14
f 12/14/15 11/12/15 16/18/15
f 18/17/16 17/20/16 19/19/16
f 17/20/16 16/18/16 19/19/16
o top_Circle.002
v -0.039794 3.473687 -0.268122
v -0.294793 3.473687 -0.082854
v -0.197392 3.473687 0.216915
v 0.117805 3.473687 0.216915
v 0.215206 3.473687 -0.082854
v -0.038461 3.436372 -0.268122
v -0.293460 3.436372 -0.082854
v -0.196059 3.436372 0.216915
v 0.119137 3.436372 0.216915
v 0.216538 3.436372 -0.082854
v -0.046457 3.157842 -0.595189
v -0.612515 3.157842 -0.183924
v -0.396300 3.157842 0.481518
v 0.303386 3.157842 0.481518
v 0.519601 3.157842 -0.183924
v -0.047790 3.093874 -0.476795
v -0.501248 3.093874 -0.147338
v -0.328043 3.093874 0.385735
v 0.232463 3.093874 0.385735
v 0.405669 3.093874 -0.147338
vt 0.000000 0.000000
vt 0.000000 0.000000
vt 0.000000 0.000000
vt 0.000000 0.000000
vt 0.000000 0.000000
vt 0.000000 0.000000
vt 0.000000 0.000000
vt 0.000000 0.000000
vt 0.000000 0.000000
vt 0.000000 0.000000
vt 0.000000 0.000000
vt 0.000000 0.000000
vt 0.000000 0.000000
vt 0.000000 0.000000
vt 0.000000 0.000000
vt 0.000000 0.000000
vt 0.000000 0.000000
vt 0.000000 0.000000
vt 0.000000 0.000000
vt 0.000000 0.000000
vn 0.9505 0.0339 0.3088
vn -0.9505 -0.0339 0.3088
vn 0.5877 0.0210 -0.8088
vn 0.0000 0.0000 1.0000
vn -0.5877 -0.0210 -0.8088
vn 0.4297 0.6822 -0.5915
vn 0.0000 0.6887 0.7250
vn -0.4226 0.6951 -0.5816
vn 0.6990 0.6781 0.2271
vn -0.6802 0.6989 0.2210
vn 0.3246 -0.8337 -0.4468
vn 0.0000 -0.8316 0.5554
vn -0.3283 -0.8295 -0.4519
vn 0.5234 -0.8349 0.1701
vn -0.5331 -0.8282 0.1732
vn 0.0000 1.0000 0.0000
usemtl None
s off
f 25/21/18 29/22/18 30/23/18
f 23/24/19 27/25/19 28/26/19
f 25/21/20 26/27/20 21/28/20
f 24/29/21 28/26/21 29/22/21
f 21/28/22 27/25/22 22/30/22
f 26/27/23 35/31/23 31/32/23
f 28/26/24 34/33/24 29/22/24
f 27/25/25 31/32/25 32/34/25
f 29/22/26 35/31/26 30/23/26
f 27/25/27 33/35/27 28/26/27
f 31/32/28 40/36/28 36/37/28
f 33/35/29 39/38/29 34/33/29
f 32/34/30 36/37/30 37/39/30
f 34/33/31 40/36/31 35/31/31
f 32/34/32 38/40/32 33/35/32
f 23/24/33 25/21/33 21/28/33
f 25/21/18 24/29/18 29/22/18
f 23/24/19 22/30/19 27/25/19
f 25/21/20 30/23/20 26/27/20
f 24/29/21 23/24/21 28/26/21
f 21/28/22 26/27/22 27/25/22
f 26/27/23 30/23/23 35/31/23
f 28/26/24 33/35/24 34/33/24
f 27/25/25 26/27/25 31/32/25
f 29/22/26 34/33/26 35/31/26
f 27/25/27 32/34/27 33/35/27
f 31/32/28 35/31/28 40/36/28
f 33/35/29 38/40/29 39/38/29
f 32/34/30 31/32/30 36/37/30
f 34/33/31 39/38/31 40/36/31
f 32/34/32 37/39/32 38/40/32
f 21/28/33 22/30/33 23/24/33
f 23/24/33 24/29/33 25/21/33
o Window_Circle
v 0.872565 1.951085 0.549782
v 1.021304 1.920580 0.106434
v 0.885949 2.308632 -0.118748
v 0.653556 2.578965 0.185431
v 0.645284 2.357989 0.598605
v 0.984591 1.974669 0.134627
v 0.862415 1.999726 0.498798
v 0.873409 2.293419 -0.050339
v 0.682519 2.515474 0.199516
v 0.675724 2.333962 0.538902
v 0.954535 1.958961 0.125624
v 0.832359 1.984018 0.489795
v 0.843353 2.277711 -0.059342
v 0.652463 2.499766 0.190514
v 0.645668 2.318254 0.529899
v 0.820432 1.910717 0.536617
v 0.969172 1.880212 0.093269
v 0.833817 2.268264 -0.131912
v 0.601424 2.538598 0.172267
v 0.593152 2.317621 0.585441
vt 0.000000 0.000000
vt 0.000000 0.000000
vt 0.000000 0.000000
vt 0.000000 0.000000
vt 0.000000 0.000000
vt 0.000000 0.000000
vt 0.000000 0.000000
vt 0.000000 0.000000
vt 0.000000 0.000000
vt 0.000000 0.000000
vt 0.000000 0.000000
vt 0.000000 0.000000
vt 0.000000 0.000000
vt 0.000000 0.000000
vt 0.000000 0.000000
vt 0.000000 0.000000
vt 0.000000 0.000000
vt 0.000000 0.000000
vt 0.000000 0.000000
vt 0.000000 0.000000
vn 0.5157 -0.7598 -0.3960
vn 0.8566 0.4477 0.2566
vn -0.4276 0.3375 0.8386
vn 0.1761 0.2137 -0.9609
vn 0.1426 -0.6832 0.7161
vn -0.4068 0.8918 -0.1978
vn -0.2779 0.6028 -0.7480
vn 0.5554 -0.7959 0.2411
vn -0.6265 0.6924 0.3578
vn 0.4580 -0.3212 -0.8289
vn -0.1090 -0.1782 0.9779
vn -0.8566 -0.4477 -0.2566
usemtl None
s off
f 50/41/34 54/42/34 49/43/34
f 47/44/35 42/45/35 46/46/35
f 46/46/35 43/47/35 48/48/35
f 48/48/35 44/49/35 49/43/35
f 49/43/35 45/50/35 50/41/35
f 47/44/35 45/50/35 41/51/35
f 53/52/35 55/53/35 52/54/35
f 48/48/36 51/55/36 46/46/36
f 47/44/37 55/53/37 50/41/37
f 49/43/38 53/52/38 48/48/38
f 46/46/39 52/54/39 47/44/39
f 43/47/40 59/56/40 44/49/40
f 41/51/41 57/57/41 42/45/41
f 45/50/42 59/56/42 60/58/42
f 42/45/43 58/59/43 43/47/43
f 41/51/44 60/58/44 56/60/44
f 56/60/45 59/56/45 58/59/45
f 50/41/34 55/53/34 54/42/34
f 47/44/35 41/51/35 42/45/35
f 46/46/35 42/45/35 43/47/35
f 48/48/35 43/47/35 44/49/35
f 49/43/35 44/49/35 45/50/35
f 47/44/35 50/41/35 45/50/35
f 52/54/35 51/55/35 53/52/35
f 53/52/35 54/42/35 55/53/35
f 48/48/36 53/52/36 51/55/36
f 47/44/37 52/54/37 55/53/37
f 49/43/38 54/42/38 53/52/38
f 46/46/39 51/55/39 52/54/39
f 43/47/40 58/59/40 59/56/40
f 41/51/41 56/60/41 57/57/41
f 45/50/42 44/49/42 59/56/42
f 42/45/43 57/57/43 58/59/43
f 41/51/44 45/50/44 60/58/44
f 58/59/45 57/57/45 56/60/45
f 56/60/45 60/58/45 59/56/45
